<?xml version="1.0" encoding="UTF-8"?>
<svg version="1.1" xmlns="http://www.w3.org/2000/svg" width="512" height="512">
<path d="M0 0 C1.25565765 0.00031723 1.25565765 0.00031723 2.53668213 0.00064087 C15.88291059 0.03424293 28.61854125 0.87678477 41.5625 4.375 C42.30032715 4.57287109 43.0381543 4.77074219 43.79833984 4.97460938 C48.4567841 6.26300434 53.00630181 7.76341898 57.5625 9.375 C59.14804687 9.90867187 59.14804687 9.90867187 60.765625 10.453125 C89.76598187 20.79998599 117.15259226 40.68044843 135.5625 65.375 C135.95743652 65.89497559 136.35237305 66.41495117 136.75927734 66.95068359 C164.73526856 103.91389383 176.7968025 150.27782542 170.4375 196.3125 C166.19141304 223.50941909 154.99188738 247.61886354 141.5625 271.375 C141.01899902 272.33841309 140.47549805 273.30182617 139.91552734 274.29443359 C137.76158236 278.10904878 135.60462631 281.92189777 133.4387207 285.72973633 C129.55768931 292.56480303 125.78728598 299.45370298 122.0625 306.375 C117.81849877 314.26108882 113.4918563 322.09150315 109.0625 329.875 C103.99964305 338.77337779 99.08120058 347.74158445 94.22216797 356.75268555 C89.87086928 364.81986978 85.44251844 372.84071773 80.97460938 380.84375 C78.12312855 385.95511811 75.28059535 391.07146439 72.4375 396.1875 C71.80215332 397.33065674 71.16680664 398.47381348 70.51220703 399.65161133 C65.50786973 408.65937146 60.52783133 417.68041321 55.55389404 426.70498657 C50.1313701 436.5426758 44.68375172 446.36616399 39.22241211 456.18237305 C35.91963589 462.12196942 32.62628175 468.06657959 29.34765625 474.01953125 C28.99412079 474.66127289 28.64058533 475.30301453 28.27633667 475.96420288 C26.57979062 479.04428609 24.88453521 482.12506839 23.19140625 485.20703125 C21.32321695 488.60090848 19.44301905 491.98794247 17.5625 495.375 C17.218703 496.00420349 16.87490601 496.63340698 16.52069092 497.28167725 C15.46855086 499.20672257 14.40517193 501.12519731 13.33984375 503.04296875 C12.71198975 504.18403076 12.08413574 505.32509277 11.43725586 506.50073242 C9.65604691 509.23157927 8.34135486 510.72930828 5.5625 512.375 C3.16015625 512.84375 3.16015625 512.84375 0.625 512.875 C-0.20902344 512.9059375 -1.04304687 512.936875 -1.90234375 512.96875 C-6.38857074 511.91804661 -8.45810881 508.89789106 -10.83959961 505.19482422 C-12.42399401 502.51030913 -13.93828893 499.79549406 -15.4375 497.0625 C-16.00146484 496.04994141 -16.56542969 495.03738281 -17.14648438 493.99414062 C-21.68467917 485.81934578 -26.12851878 477.59282628 -30.56054688 469.36010742 C-34.26982982 462.48312801 -38.07296381 455.66580759 -41.9375 448.875 C-46.9325594 440.09762399 -51.77665762 431.24839221 -56.5625 422.35546875 C-60.27195643 415.48049062 -64.07379 408.66435579 -67.9375 401.875 C-72.9325594 393.09762399 -77.77665762 384.24839221 -82.5625 375.35546875 C-86.27195643 368.48049062 -90.07379 361.66435579 -93.9375 354.875 C-98.9325594 346.09762399 -103.77665762 337.24839221 -108.5625 328.35546875 C-112.27195643 321.48049062 -116.07379 314.66435579 -119.9375 307.875 C-124.93005129 299.10203126 -129.77965162 290.26127524 -134.55151367 281.36645508 C-137.79362355 275.34301547 -141.13932516 269.39366902 -144.56835938 263.47485352 C-168.48678325 222.05167141 -177.85848156 174.05256612 -165.38598633 127.1394043 C-152.81287715 82.49821106 -124.38819748 45.55288573 -84.375 22.125 C-58.01104767 7.50825092 -30.14010551 -0.07031823 0 0 Z M-61.7734375 112.8671875 C-76.4215222 130.11493229 -85.39721104 151.10286537 -84.71875 173.97265625 C-82.73863591 197.92653647 -73.31714114 218.4900981 -55.6328125 234.9921875 C-47.54431596 241.79752311 -39.2841243 246.85201596 -29.4375 250.625 C-28.79723877 250.87145264 -28.15697754 251.11790527 -27.49731445 251.37182617 C-9.74874029 257.85089558 10.79106469 257.47892767 28.5625 251.375 C29.6246875 251.01277344 30.686875 250.65054688 31.78125 250.27734375 C53.30153269 242.09630845 69.23448834 225.03188522 78.8359375 204.48046875 C88.25943561 183.01469975 87.36364255 159.62714517 79.0300293 138.03515625 C76.55868138 131.99690673 73.42747315 126.63743245 69.5625 121.375 C68.91796875 120.47394531 68.2734375 119.57289062 67.609375 118.64453125 C54.77757015 101.79684673 35.08278107 90.49018124 14.2890625 86.79296875 C-13.87989773 83.63355707 -41.99391329 91.76461819 -61.7734375 112.8671875 Z " fill="#427A43" transform="translate(255.4375,-0.37499999999999994)"/>
</svg>
